<svg id="google_white" xmlns="http://www.w3.org/2000/svg" viewBox="0 0 32 32"><title>googleplus_white</title><path d="M0,0V32H32V0H0ZM13.87,23.82A7.37,7.37,0,1,1,11,9.35a7.26,7.26,0,0,1,6.1,1.55l0.2,0.17h0s0,0,0,0l-2.09,2.24a4.35,4.35,0,0,0-3.17-1A4.2,4.2,0,0,0,9.5,13.47a4.28,4.28,0,0,0-.94,4.93,4.18,4.18,0,0,0,4.22,2.39A4.76,4.76,0,0,0,16.4,18H12V15l0.54,0h6.68a0.38,0.38,0,0,1,.47.35A7.35,7.35,0,0,1,13.87,23.82Zm14.3-7.13c0,0.36,0,.45-0.3.44-0.66,0-2.22,0-2.22,0,0,0.66,0,1.33,0,2s-0.18.54-.76,0.54c-0.28,0-.3,0-0.58,0a0.34,0.34,0,0,1-.43-0.39c0-.68,0-1.37,0-2.12-0.7,0-1.38,0-2,0-0.37,0-.52-0.09-0.49-0.47a7,7,0,0,0,0-1,0.32,0.32,0,0,1,.4-0.39c0.68,0,1.37,0,2.11,0,0-.69,0-1.33,0-2,0-.44.13-0.58,0.55-0.53a5,5,0,0,0,.88,0,0.32,0.32,0,0,1,.39.39c0,0.68,0,1.37,0,2.1,0.7,0,1.35,0,2,0,0.39,0,.53.12,0.5,0.5A4.93,4.93,0,0,0,28.17,16.69Z" style="fill:#fff"/></svg>