<svg id="google_red" xmlns="http://www.w3.org/2000/svg" viewBox="0 0 32 32"><title>googleplus_red</title><rect x="-0.04" y="-0.04" width="32.09" height="32.09" style="fill:#d9272e"/><path d="M17.35,11.08s0,0,0,0l-0.2-.17A7.26,7.26,0,0,0,11,9.35a7.37,7.37,0,1,0,8.68,6A0.35,0.35,0,0,0,19.3,15H12.71l-0.36,0v3.11h4a4.13,4.13,0,0,1-3.62,2.72A4.29,4.29,0,0,1,9.5,13.47a4.2,4.2,0,0,1,2.59-1.16,4.35,4.35,0,0,1,3.17,1Zm8.39,1.64H23.82c0,0.14,0,.26,0,0.38,0,0.6,0,1.21,0,1.81a0.27,0.27,0,0,1-.34.33c-0.47,0-.94,0-1.42,0H21.27v1.92h2.56v2.55h1.88c0-.14,0-0.27,0-0.4,0-.55,0-1.1,0-1.65s0-.5.49-0.5h2V15.25h-2c-0.49,0-.49,0-0.49-0.49C25.74,14.09,25.74,13.42,25.74,12.73Z"/><path d="M17.35,11.08l-2.09,2.24a4.35,4.35,0,0,0-3.17-1A4.2,4.2,0,0,0,9.5,13.47a4.29,4.29,0,0,0,3.28,7.39,4.13,4.13,0,0,0,3.62-2.72h-4V15l0.36,0H19.3a0.35,0.35,0,0,1,.42.35,7.38,7.38,0,1,1-8.68-6,7.26,7.26,0,0,1,6.1,1.55l0.2,0.17S17.38,11.13,17.35,11.08Z" style="fill:#fff"/><path d="M25.74,12.73c0,0.7,0,1.36,0,2,0,0.49,0,.49.49,0.49h2v1.91h-2c-0.48,0-.49-0.11-0.49.5s0,1.1,0,1.65c0,0.13,0,.26,0,0.4H23.83V17.16H21.27V15.24h0.79c0.47,0,.94,0,1.42,0a0.27,0.27,0,0,0,.34-0.33c0-.6,0-1.21,0-1.81,0-.12,0-0.24,0-0.38h1.92Z" style="fill:#fff"/></svg>