<svg id="youtube_red" xmlns="http://www.w3.org/2000/svg" viewBox="0 0 32 32"><title>youtube_red</title><rect x="-0.09" y="-0.04" width="32.09" height="32.09" style="fill:#d9272e"/><path d="M16,15.19h6.43a3.25,3.25,0,0,1,3.21,3c0,0.47,0,.93,0,1.4,0,1.68,0,3.35,0,5A3.24,3.24,0,0,1,25,26.56a3.19,3.19,0,0,1-2.35,1.38,5.07,5.07,0,0,1-.53,0c-4.21,0-8.43,0-12.64,0a3.24,3.24,0,0,1-3.19-2.85,3.73,3.73,0,0,1,0-.45q0-3.13,0-6.26a3.27,3.27,0,0,1,1.95-2.95,3.42,3.42,0,0,1,1.36-.28H16ZM17.45,25h0.05a1.67,1.67,0,0,1,.1.14,0.89,0.89,0,0,0,1.1.41,1,1,0,0,0,.66-0.75,5.67,5.67,0,0,0,.21-1.25c0-.87,0-1.75,0-2.63a2.62,2.62,0,0,0-.32-1.22,0.93,0.93,0,0,0-1.58-.06,0.15,0.15,0,0,1-.05.07,0.13,0.13,0,0,1-.11,0,0.32,0.32,0,0,1,0-.14c0-.67,0-1.34,0-2,0-.12,0-0.17-0.16-0.16H16.66c-0.23,0-.23,0-0.23.23q0,3.6,0,7.21c0,0.16,0,.31,0,0.47a0.12,0.12,0,0,0,.15.16h0.7a0.13,0.13,0,0,0,.15-0.15C17.44,25.19,17.45,25.1,17.45,25Zm5-2.41h0.9a0.12,0.12,0,0,0,.15-0.15c0-.57,0-1.14-0.08-1.71a2.28,2.28,0,0,0-.24-0.83,1.32,1.32,0,0,0-1.38-.67,1.36,1.36,0,0,0-1.36,1.11,5.17,5.17,0,0,0-.14,1.36c0,0.58,0,1.15,0,1.73a5.86,5.86,0,0,0,.16,1.1,1.24,1.24,0,0,0,1,1,2.63,2.63,0,0,0,.71,0,1.22,1.22,0,0,0,1.1-.74,3,3,0,0,0,.2-1.34,0.1,0.1,0,0,0-.13-0.11h-0.5c-0.35,0-.34,0-0.37.35a1.2,1.2,0,0,1-.2.66,0.4,0.4,0,0,1-.68,0A0.85,0.85,0,0,1,21.47,24c0-.43-0.05-0.86-0.07-1.29,0-.12.08-0.14,0.18-0.14h0.89Zm-7-.18c0-.95,0-1.9,0-2.85a0.14,0.14,0,0,0-.17-0.17c-0.23,0-.46,0-0.68,0s-0.2,0-.2.2c0,1.32,0,2.65,0,4a2,2,0,0,1-.13.63,0.37,0.37,0,0,1-.41.22,0.38,0.38,0,0,1-.34-0.26,0.69,0.69,0,0,1-.07-0.25c0-.47,0-0.93,0-1.4q0-1.47,0-2.94a0.14,0.14,0,0,0-.18-0.18,6.18,6.18,0,0,1-.64,0c-0.16,0-.2,0-0.2.2,0,1.55,0,3.1,0,4.66a2.57,2.57,0,0,0,.11.69,0.83,0.83,0,0,0,.7.64,0.94,0.94,0,0,0,1-.37,2.27,2.27,0,0,1,.19-0.2,1.79,1.79,0,0,1,0,.28,0.12,0.12,0,0,0,.15.14c0.23,0,.46,0,0.68,0s0.2,0,.19-0.19C15.45,24.3,15.45,23.36,15.45,22.41Zm-4.39-.34q0-1.57,0-3.15c0-.24,0-0.25.26-0.25h0.93a0.12,0.12,0,0,0,.14-0.15q0-.51,0-1a0.11,0.11,0,0,0-.13-0.14H8.74a0.11,0.11,0,0,0-.14.14c0,0.34,0,.67,0,1a0.12,0.12,0,0,0,.16.15h0.9c0.27,0,.28,0,0.28.28q0,3.11,0,6.21s0,0.09,0,.14a0.1,0.1,0,0,0,.13.13h0.75c0.24,0,.24,0,0.24-0.23Q11.06,23.64,11.06,22.07Z" style="fill:#fff"/><path d="M12.24,7.53l0.29-.95C12.76,5.81,13,5,13.23,4.25A0.26,0.26,0,0,1,13.54,4c0.35,0,.71,0,1.06,0,0.18,0,.2,0,0.15.2L13.17,8.82c0,0.1-.07.2-0.1,0.29a2.37,2.37,0,0,0-.16.91c0,1.13,0,2.26,0,3.39,0,0.22,0,.22-0.23.22h-1a0.16,0.16,0,0,1-.2-0.2c0-1.07,0-2.14,0-3.21a3.64,3.64,0,0,0-.23-1.32c-0.56-1.56-1.1-3.12-1.64-4.68C9.57,4.07,9.59,4,9.77,4c0.38,0,.76,0,1.14,0a0.24,0.24,0,0,1,.27.21c0.32,1.06.65,2.12,1,3.18l0,0.12h0Z" style="fill:#fff"/><path d="M14,10.05a10.29,10.29,0,0,1,.19-2.35,1.7,1.7,0,0,1,.94-1.3,1.85,1.85,0,0,1,2,.23,1.69,1.69,0,0,1,.58,1.06,12.51,12.51,0,0,1,.18,1.6c0,0.67,0,1.35,0,2a3.92,3.92,0,0,1-.34,1.6,1.58,1.58,0,0,1-1.35.91,1.72,1.72,0,0,1-1.55-.53,2.15,2.15,0,0,1-.5-1.22c-0.08-.67-0.12-1.35-0.17-2h0Zm1.36,0h0c0,0.48,0,1,0,1.43a3.39,3.39,0,0,0,.18.81,0.41,0.41,0,0,0,.41.28,0.43,0.43,0,0,0,.43-0.26,1.78,1.78,0,0,0,.17-0.61q0-1.6,0-3.21a1.83,1.83,0,0,0-.17-0.62,0.48,0.48,0,0,0-.86,0,2.11,2.11,0,0,0-.15.63C15.39,9,15.41,9.5,15.41,10Z" style="fill:#fff"/><path d="M21,13.07a5.82,5.82,0,0,1-.38.47,1.14,1.14,0,0,1-1.79-.3,2.09,2.09,0,0,1-.21-0.95q0-2.81,0-5.62c0-.23,0-0.24.24-0.24h0.76c0.26,0,.26,0,0.26.26,0,1.53,0,3.06,0,4.59a3.72,3.72,0,0,0,.06.66,0.46,0.46,0,0,0,.45.43A0.48,0.48,0,0,0,20.92,12,5.17,5.17,0,0,0,21,11.06c0-1.46,0-2.93,0-4.39,0-.24,0-0.24.25-0.24h0.87a0.17,0.17,0,0,1,.21.2q0,3.41,0,6.82a0.17,0.17,0,0,1-.2.2H21.22A0.15,0.15,0,0,1,21,13.46C21,13.34,21,13.21,21,13.07Z" style="fill:#fff"/><path d="M18.57,22.4c0,0.44,0,.89-0.05,1.33a1.37,1.37,0,0,1-.13.48,0.4,0.4,0,0,1-.74,0,1.31,1.31,0,0,1-.18-0.7c0-.55,0-1.11,0-1.66a7.22,7.22,0,0,1,.09-1,1,1,0,0,1,.16-0.37,0.36,0.36,0,0,1,.66,0,2.27,2.27,0,0,1,.18.73c0,0.36,0,.71,0,1.07h0Z" style="fill:#fff"/><path d="M21.94,21.65a3.39,3.39,0,0,1-.39,0,0.19,0.19,0,0,1-.14-0.1,1.86,1.86,0,0,1,.08-1,0.44,0.44,0,0,1,.45-0.31,0.41,0.41,0,0,1,.44.32,7,7,0,0,1,.08,1,0.2,0.2,0,0,1-.14.1A3.44,3.44,0,0,1,21.94,21.65Z" style="fill:#fff"/></svg>