<?xml version="1.0" encoding="utf-8"?>
<!-- Generator: Adobe Illustrator 19.2.1, SVG Export Plug-In . SVG Version: 6.00 Build 0)  -->
<svg version="1.1" xmlns="http://www.w3.org/2000/svg" xmlns:xlink="http://www.w3.org/1999/xlink" x="0px" y="0px"
	 viewBox="0 0 32 32" style="enable-background:new 0 0 32 32;" xml:space="preserve">
<style type="text/css">
	.st0{display:none;}
	.st1{display:inline;fill:#D9272E;}
	.st2{display:inline;}
	.st3{fill:#FFFFFF;}
</style>
<g id="youtube_x5F_red" class="st0">
	<rect x="-0.1" y="0" class="st1" width="32.1" height="32.1"/>
	<g class="st2">
		<path class="st3" d="M16,15.2c2.1,0,4.3,0,6.4,0c1.7,0,3.1,1.4,3.2,3c0,0.5,0,0.9,0,1.4c0,1.7,0,3.4,0,5c0,0.7-0.2,1.3-0.6,1.9
			c-0.6,0.8-1.4,1.3-2.3,1.4c-0.2,0-0.4,0-0.5,0c-4.2,0-8.4,0-12.6,0c-1.7,0-3-1.3-3.2-2.8c0-0.1,0-0.3,0-0.4c0-2.1,0-4.2,0-6.3
			c0-1.3,0.8-2.5,1.9-2.9c0.4-0.2,0.9-0.3,1.4-0.3C11.7,15.2,13.8,15.2,16,15.2z M17.5,25C17.5,25,17.5,25,17.5,25
			c0.1,0,0.1,0.1,0.2,0.1c0.2,0.4,0.7,0.5,1.1,0.4c0.4-0.1,0.6-0.4,0.7-0.8c0.1-0.4,0.2-0.8,0.2-1.2c0-0.9,0-1.8,0-2.6
			c0-0.4-0.1-0.8-0.3-1.2c-0.4-0.6-1.3-0.6-1.6-0.1c0,0,0,0.1-0.1,0.1c0,0-0.1,0-0.1,0c0,0,0-0.1,0-0.1c0-0.7,0-1.3,0-2
			c0-0.1,0-0.2-0.2-0.2c-0.2,0-0.4,0-0.7,0c-0.2,0-0.2,0-0.2,0.2c0,2.4,0,4.8,0,7.2c0,0.2,0,0.3,0,0.5c0,0.1,0,0.2,0.2,0.2
			c0.2,0,0.5,0,0.7,0c0.1,0,0.2,0,0.2-0.2C17.4,25.2,17.4,25.1,17.5,25z M22.5,22.6c0.3,0,0.6,0,0.9,0c0.1,0,0.2,0,0.2-0.2
			c0-0.6,0-1.1-0.1-1.7c0-0.3-0.1-0.6-0.2-0.8c-0.3-0.5-0.8-0.7-1.4-0.7c-0.7,0.1-1.2,0.4-1.4,1.1c-0.1,0.4-0.1,0.9-0.1,1.4
			c0,0.6,0,1.2,0,1.7c0,0.4,0.1,0.7,0.2,1.1c0.1,0.5,0.4,0.9,1,1c0.2,0,0.5,0.1,0.7,0c0.5,0,0.9-0.3,1.1-0.7
			c0.2-0.4,0.2-0.9,0.2-1.3c0-0.1-0.1-0.1-0.1-0.1c-0.2,0-0.3,0-0.5,0c-0.3,0-0.3,0-0.4,0.3c0,0.2-0.1,0.5-0.2,0.7
			c-0.2,0.2-0.5,0.2-0.7,0c-0.1-0.1-0.1-0.2-0.2-0.4c0-0.4-0.1-0.9-0.1-1.3c0-0.1,0.1-0.1,0.2-0.1C21.9,22.6,22.2,22.6,22.5,22.6z
			 M15.5,22.4c0-0.9,0-1.9,0-2.8c0-0.1,0-0.2-0.2-0.2c-0.2,0-0.5,0-0.7,0c-0.2,0-0.2,0-0.2,0.2c0,1.3,0,2.6,0,4
			c0,0.2-0.1,0.4-0.1,0.6c-0.1,0.2-0.2,0.2-0.4,0.2c-0.2,0-0.3-0.1-0.3-0.3c0-0.1-0.1-0.2-0.1-0.3c0-0.5,0-0.9,0-1.4c0-1,0-2,0-2.9
			c0-0.1,0-0.2-0.2-0.2c-0.2,0-0.4,0-0.6,0c-0.2,0-0.2,0-0.2,0.2c0,1.6,0,3.1,0,4.7c0,0.2,0,0.5,0.1,0.7c0.1,0.3,0.3,0.6,0.7,0.6
			c0.4,0.1,0.7,0,1-0.4c0.1-0.1,0.1-0.1,0.2-0.2c0,0.1,0,0.2,0,0.3c0,0.1,0,0.1,0.1,0.1c0.2,0,0.5,0,0.7,0c0.1,0,0.2,0,0.2-0.2
			C15.4,24.3,15.5,23.4,15.5,22.4z M11.1,22.1c0-1,0-2.1,0-3.1c0-0.2,0-0.3,0.3-0.3c0.3,0,0.6,0,0.9,0c0.1,0,0.1,0,0.1-0.1
			c0-0.3,0-0.7,0-1c0-0.1,0-0.1-0.1-0.1c-1.2,0-2.3,0-3.5,0c-0.1,0-0.1,0-0.1,0.1c0,0.3,0,0.7,0,1c0,0.1,0,0.2,0.2,0.1
			c0.3,0,0.6,0,0.9,0c0.3,0,0.3,0,0.3,0.3c0,2.1,0,4.1,0,6.2c0,0,0,0.1,0,0.1c0,0.1,0,0.1,0.1,0.1c0.2,0,0.5,0,0.7,0
			c0.2,0,0.2,0,0.2-0.2C11.1,24.2,11.1,23.1,11.1,22.1z"/>
		<path class="st3" d="M12.2,7.5c0.1-0.3,0.2-0.6,0.3-0.9C12.8,5.8,13,5,13.2,4.3c0-0.2,0.1-0.2,0.3-0.2c0.4,0,0.7,0,1.1,0
			c0.2,0,0.2,0,0.1,0.2c-0.5,1.5-1,3.1-1.6,4.6c0,0.1-0.1,0.2-0.1,0.3C13,9.4,12.9,9.7,12.9,10c0,1.1,0,2.3,0,3.4
			c0,0.2,0,0.2-0.2,0.2c-0.3,0-0.7,0-1,0c-0.1,0-0.2-0.1-0.2-0.2c0-1.1,0-2.1,0-3.2c0-0.5-0.1-0.9-0.2-1.3c-0.6-1.6-1.1-3.1-1.6-4.7
			C9.6,4.1,9.6,4,9.8,4c0.4,0,0.8,0,1.1,0c0.2,0,0.2,0.1,0.3,0.2c0.3,1.1,0.7,2.1,1,3.2C12.2,7.5,12.2,7.5,12.2,7.5
			C12.2,7.5,12.2,7.5,12.2,7.5z"/>
		<path class="st3" d="M14,10.1c0-0.8,0-1.6,0.2-2.3c0.1-0.6,0.4-1.1,0.9-1.3c0.7-0.3,1.4-0.3,2,0.2c0.3,0.3,0.5,0.6,0.6,1.1
			c0.1,0.5,0.2,1.1,0.2,1.6c0,0.7,0,1.3,0,2c0,0.5-0.1,1.1-0.3,1.6c-0.3,0.6-0.7,0.9-1.3,0.9c-0.6,0.1-1.1-0.1-1.6-0.5
			c-0.3-0.3-0.5-0.8-0.5-1.2C14.1,11.4,14.1,10.7,14,10.1C14,10.1,14,10.1,14,10.1z M15.4,10C15.4,10,15.4,10,15.4,10
			c0,0.5,0,1,0,1.4c0,0.3,0.1,0.5,0.2,0.8c0.1,0.2,0.2,0.3,0.4,0.3c0.2,0,0.4-0.1,0.4-0.3c0.1-0.2,0.2-0.4,0.2-0.6
			c0-1.1,0-2.1,0-3.2c0-0.2-0.1-0.4-0.2-0.6c-0.1-0.2-0.2-0.3-0.4-0.3c-0.2,0-0.4,0.1-0.4,0.3c-0.1,0.2-0.1,0.4-0.2,0.6
			C15.4,9,15.4,9.5,15.4,10z"/>
		<path class="st3" d="M21,13.1c-0.1,0.2-0.2,0.3-0.4,0.5c-0.5,0.5-1.5,0.4-1.8-0.3c-0.1-0.3-0.2-0.6-0.2-0.9c0-1.9,0-3.7,0-5.6
			c0-0.2,0-0.2,0.2-0.2c0.3,0,0.5,0,0.8,0c0.3,0,0.3,0,0.3,0.3c0,1.5,0,3.1,0,4.6c0,0.2,0,0.4,0.1,0.7c0.1,0.3,0.2,0.4,0.5,0.4
			c0.2,0,0.4-0.1,0.5-0.4c0.1-0.3,0.1-0.6,0.1-0.9c0-1.5,0-2.9,0-4.4c0-0.2,0-0.2,0.2-0.2c0.3,0,0.6,0,0.9,0c0.1,0,0.2,0,0.2,0.2
			c0,2.3,0,4.5,0,6.8c0,0.1-0.1,0.2-0.2,0.2c-0.3,0-0.6,0-0.9,0c-0.1,0-0.2-0.1-0.2-0.2C21,13.3,21,13.2,21,13.1z"/>
		<path class="st3" d="M18.6,22.4c0,0.4,0,0.9-0.1,1.3c0,0.2-0.1,0.3-0.1,0.5c-0.2,0.3-0.5,0.4-0.7,0c-0.1-0.2-0.2-0.5-0.2-0.7
			c0-0.6,0-1.1,0-1.7c0-0.3,0-0.6,0.1-1c0-0.1,0.1-0.3,0.2-0.4c0.2-0.3,0.5-0.3,0.7,0c0.1,0.2,0.2,0.5,0.2,0.7
			C18.6,21.7,18.5,22,18.6,22.4C18.6,22.4,18.6,22.4,18.6,22.4z"/>
		<path class="st3" d="M21.9,21.7c-0.1,0-0.3,0-0.4,0c-0.1,0-0.1-0.1-0.1-0.1c0-0.3,0-0.7,0.1-1c0.1-0.2,0.2-0.3,0.5-0.3
			c0.2,0,0.4,0.1,0.4,0.3c0.1,0.3,0.1,0.6,0.1,1c0,0-0.1,0.1-0.1,0.1C22.2,21.7,22.1,21.7,21.9,21.7z"/>
	</g>
</g>
<g id="youtube_x5F_white">
	<g>
		<path class="st3" d="M19.2,19.7c-0.4-0.6-1.3-0.6-1.6-0.1c0,0,0,0.1-0.1,0.1c0,0-0.1,0-0.1,0c0,0,0-0.1,0-0.1c0-0.7,0-1.3,0-2
			c0-0.1,0-0.2-0.2-0.2c-0.2,0-0.7,0-0.9,0c-0.2,0-0.4,0-0.4,0.2c0,2.4,0,4.8,0,7.2c0,0.2,0.2,0.3,0.2,0.5c0,0.1,0.1,0.2,0.3,0.2
			c0.2,0,0.5,0,0.8,0c0.1,0,0.2,0,0.2-0.2c0-0.1,0-0.2,0-0.3c0,0,0,0,0.1,0c0,0,0.1,0.1,0.1,0.1c0.2,0.4,0.7,0.5,1.1,0.4
			c0.4-0.1,0.6-0.4,0.7-0.8c0.1-0.4,0.2-0.8,0.2-1.2c0-0.9,0-1.8,0-2.6C19.5,20.5,19.4,20.1,19.2,19.7z M18.5,23.5
			c0,0.2-0.1,0.4-0.1,0.6c-0.2,0.3-0.5,0.4-0.7,0.1c-0.1-0.2-0.2-0.4-0.2-0.7c0-0.6,0-1.1,0-1.6c0-0.3,0-0.6,0.1-0.9
			c0-0.1,0.1-0.3,0.2-0.4c0.2-0.3,0.5-0.3,0.7,0c0.1,0.2,0.2,0.3,0.2,0.5c0,0.4,0,0.9,0,0.9c0,0,0,0,0,0
			C18.6,23,18.5,23.1,18.5,23.5z"/>
		<path class="st3" d="M12.3,17.4c-1.2,0-2.3,0-3.5,0c-0.1,0-0.1,0-0.1,0.1c0,0.3,0,0.7,0,1c0,0.1,0,0.2,0.2,0.1c0.3,0,0.6,0,0.9,0
			c0.3,0,0.3,0,0.3,0.3c0,2.1,0,4.1,0,6.2c0,0,0,0.1,0,0.1c0,0.1,0,0.1,0.1,0.1c0.2,0,0.5,0,0.7,0c0.2,0,0.2,0,0.2-0.2
			c0-1,0-2.1,0-3.1c0-1,0-2.1,0-3.1c0-0.2,0-0.3,0.3-0.3c0.3,0,0.6,0,0.9,0c0.1,0,0.2,0,0.2-0.1c0-0.3,0-0.7,0-1
			C12.4,17.4,12.4,17.4,12.3,17.4z"/>
		<path class="st3" d="M15.6,12.3c0.1,0.2,0.2,0.3,0.4,0.3c0.2,0,0.4-0.1,0.4-0.3c0.1-0.2,0.2-0.4,0.2-0.6c0-1.1,0-2.1,0-3.2
			c0-0.2-0.1-0.4-0.2-0.6c-0.1-0.2-0.2-0.3-0.4-0.3c-0.2,0-0.4,0.1-0.4,0.3c-0.1,0.2-0.1,0.4-0.2,0.6c0,0.5,0,0.5,0,1.5c0,0,0,0,0,0
			c0,0,0,1,0,1.4C15.4,11.7,15.5,12,15.6,12.3z"/>
		<path class="st3" d="M21.6,22.6c0.3,0,0.6,0,0.9,0c0.3,0,0.6,0,0.9,0c0.1,0,0.2,0,0.2-0.2c0-0.6,0-1.1-0.1-1.7
			c0-0.3-0.1-0.6-0.2-0.8c-0.3-0.5-0.8-0.7-1.4-0.7c-0.7,0.1-1.2,0.4-1.4,1.1c-0.1,0.4-0.1,0.9-0.1,1.4c0,0.6,0,1.2,0,1.7
			c0,0.4,0.1,0.7,0.2,1.1c0.1,0.5,0.4,0.9,1,1c0.2,0,0.5,0.1,0.7,0c0.5,0,0.9-0.3,1.1-0.7c0.2-0.4,0.2-0.9,0.2-1.3
			c0-0.1-0.1-0.1-0.1-0.1c-0.2,0-0.3,0-0.5,0c-0.3,0-0.3,0-0.4,0.3c0,0.2-0.1,0.5-0.2,0.7c-0.2,0.2-0.5,0.2-0.7,0
			c-0.1-0.1-0.1-0.2-0.2-0.4c0-0.4-0.1-0.9-0.1-1.3C21.4,22.6,21.5,22.6,21.6,22.6z M21.5,20.6c0.1-0.2,0.2-0.3,0.5-0.3
			c0.2,0,0.4,0.1,0.4,0.3c0.1,0.3,0.1,0.6,0.1,1c0,0-0.1,0.1-0.1,0.1c-0.1,0-0.3,0-0.4,0c-0.1,0-0.3,0-0.4,0c-0.1,0-0.1-0.1-0.1-0.1
			C21.4,21.2,21.4,20.9,21.5,20.6z"/>
		<path class="st3" d="M15.5,19.6c0-0.1,0-0.2-0.2-0.2c-0.2,0-0.5,0-0.7,0c-0.2,0-0.2,0-0.2,0.2c0,1.3,0,2.6,0,4
			c0,0.2-0.1,0.4-0.1,0.6c-0.1,0.2-0.2,0.2-0.4,0.2c-0.2,0-0.3-0.1-0.3-0.3c0-0.1-0.1-0.2-0.1-0.3c0-0.5,0-0.9,0-1.4c0-1,0-2,0-2.9
			c0-0.1,0-0.2-0.2-0.2c-0.2,0-0.4,0-0.6,0c-0.2,0-0.2,0-0.2,0.2c0,1.6,0,3.1,0,4.7c0,0.2,0,0.5,0.1,0.7c0.1,0.3,0.3,0.6,0.7,0.6
			c0.4,0.1,0.7,0,1-0.4c0.1-0.1,0.1-0.1,0.2-0.2c0,0.1,0,0.2,0,0.3c0,0.1,0,0.1,0.1,0.1c0.2,0,0.5,0,0.7,0c0.1,0,0.2,0,0.2-0.2
			c0-0.9,0-1.9,0-2.8C15.5,21.5,15.5,20.5,15.5,19.6z"/>
		<path class="st3" d="M0,0v32h32V0H0z M18.9,6c0.3,0,0.5,0,0.8,0c0.3,0,0.3,0.2,0.3,0.5c0,1.5,0,3.2,0,4.7c0,0.2,0,0.5,0.1,0.7
			c0.1,0.3,0.2,0.5,0.5,0.5c0.2,0,0.4-0.1,0.5-0.4c0.1-0.3,0.1-0.6,0.1-0.9c0-1.5,0-2.9,0-4.4c0-0.2,0-0.2,0.2-0.2
			c0.3,0,0.6,0,0.9,0c0.1,0,0.2,0,0.2,0.2c0,2.3,0,4.5,0,6.8c0,0.1-0.1,0.2-0.2,0.2c-0.3,0-0.6,0-0.9,0c-0.1,0-0.2-0.1-0.2-0.2
			c0-0.1,0-0.2,0-0.4c-0.1,0.2-0.2,0.3-0.4,0.5c-0.5,0.5-1.5,0.4-1.8-0.3c-0.1-0.3-0.2-0.6-0.2-0.9c0-1.9,0-4,0-5.8
			C18.7,6.2,18.7,6,18.9,6z M15.2,6.4c0.7-0.3,1.4-0.3,2,0.2c0.3,0.3,0.5,0.6,0.6,1.1c0.1,0.5,0.2,1.1,0.2,1.6c0,0.7,0,1.3,0,2
			c0,0.5-0.1,1.1-0.3,1.6c-0.3,0.6-0.7,0.9-1.3,0.9c-0.6,0.1-1.1-0.1-1.6-0.5c-0.3-0.3-0.5-0.8-0.5-1.2c-0.1-0.7-0.1-1.4-0.2-2
			c0,0,0,0,0,0c0-0.8,0-1.6,0.2-2.3C14.4,7.1,14.6,6.6,15.2,6.4z M9.8,4c0.4,0,0.8,0,1.1,0c0.2,0,0.2,0.1,0.3,0.2
			c0.3,1.1,0.7,2.1,1,3.2c0,0,0,0.1,0,0.1c0,0,0,0,0,0c0.1-0.3,0.2-0.6,0.3-0.9C12.8,5.8,13,5,13.2,4.3c0-0.2,0.1-0.2,0.3-0.2
			c0.4,0,0.7,0,1.1,0c0.2,0,0.2,0,0.1,0.2c-0.5,1.5-1,3.1-1.6,4.6c0,0.1-0.1,0.2-0.1,0.3C13,9.4,12.9,9.7,12.9,10c0,1.1,0,2.3,0,3.4
			c0,0.2,0,0.2-0.2,0.2c-0.3,0-0.7,0-1,0c-0.1,0-0.2-0.1-0.2-0.2c0-1.1,0-2.1,0-3.2c0-0.5-0.1-0.9-0.2-1.3c-0.6-1.6-1.1-3.1-1.6-4.7
			C9.6,4.1,9.6,4,9.8,4z M25.6,24.6c0,0.7-0.2,1.3-0.6,1.9c-0.6,0.8-1.4,1.3-2.3,1.4c-0.2,0-0.4,0-0.5,0c-4.2,0-8.4,0-12.6,0
			c-1.7,0-3-1.3-3.2-2.8c0-0.1,0-0.3,0-0.4c0-2.1,0-4.2,0-6.3c0-1.3,0.8-2.5,1.9-2.9c0.4-0.2,0.9-0.4,1.4-0.4c2.1,0,4.2-0.1,6.4-0.1
			c2.1,0,4.3,0,6.4,0c1.7,0,3.1,1.5,3.2,3.1c0,0.5,0,1,0,1.4C25.6,21.2,25.6,23,25.6,24.6z"/>
	</g>
</g>
</svg>
